<?xml version="1.0" encoding="utf-8"?>
<!-- Generator: Adobe Illustrator 21.1.0, SVG Export Plug-In . SVG Version: 6.00 Build 0)  -->
<svg version="1.1" id="Twitter" xmlns="http://www.w3.org/2000/svg" xmlns:xlink="http://www.w3.org/1999/xlink" x="0px" y="0px"
	 viewBox="0 0 128 128" style="enable-background:new 0 0 128 128;" xml:space="preserve">
<style type="text/css">
	.st0{fill:#FDE031;}
	.st1{fill:#FFFFFF;}
</style>
<g>
	<circle id="twitter-back" class="st0" cx="64" cy="64" r="64"/>
</g>
<g id="aUtFCj.tif">
	<g>
		<path class="st1" d="M26.5,90.7c0-13,0-26.1,0-39.1c0.8,0.3,1.3,0.9,2,1.4c8.3,6.3,16.7,12.5,25.6,18c2.7,1.7,5.3,3.3,8.3,4.4
			c1.1,0.4,2.1,0.5,3.2,0.1c0.8-0.3,1.6-0.6,2.4-1c3.6-1.7,6.9-3.8,10.2-6c7.7-5.1,15.1-10.6,22.4-16.2c0.3-0.2,0.6-0.6,1-0.6
			c0,12.9,0,25.8,0,38.7c-0.3,0.9-0.6,1.7-1.1,2.5c-1.1,1.5-2.6,2.3-4.5,2.7c-21.3,0-42.6,0-63.9,0C29.3,94.9,27.4,93.4,26.5,90.7z"
			/>
		<path class="st1" d="M32.1,32.6c21.3,0,42.6,0,63.9,0c2.9,0.5,4.8,2.2,5.6,5.1c0,1.5,0,2.9,0,4.4c-8.9,7.1-17.9,14-27.4,20.2
			c-2.7,1.7-5.4,3.4-8.4,4.5c-1.2,0.4-2.3,0.4-3.5,0c-2-0.8-3.8-1.8-5.6-2.9c-8-4.9-15.5-10.6-22.9-16.3c-2.4-1.9-4.8-3.7-7.2-5.6
			c0-1.6,0-3.1,0-4.7c0.2-0.5,0.4-1,0.7-1.5C28.3,33.9,30,33,32.1,32.6z"/>
	</g>
</g>
</svg>
