<?xml version="1.0" encoding="utf-8"?>
<!-- Generator: Adobe Illustrator 21.1.0, SVG Export Plug-In . SVG Version: 6.00 Build 0)  -->
<svg version="1.1" id="Github" xmlns="http://www.w3.org/2000/svg" xmlns:xlink="http://www.w3.org/1999/xlink" x="0px" y="0px"
	 viewBox="0 0 128 128" style="enable-background:new 0 0 128 128;" xml:space="preserve">
<style type="text/css">
	.st0{fill:#FDE031;}
	.st1{fill:#FFFFFF;}
</style>
<g>
	<circle id="github-back" class="st0" cx="64" cy="64" r="64"/>
	<g id="github-github">
		<path class="st1" d="M64,29c-19.8,0-35.8,16-35.8,35.8c0,15.8,10.3,29.3,24.5,34c1.8,0.3,2.4-0.8,2.4-1.7c0-0.9,0-3.7,0-6.7
			c-10,2.2-12.1-4.2-12.1-4.2c-1.6-4.1-4-5.2-4-5.2c-3.3-2.2,0.2-2.2,0.2-2.2c3.6,0.3,5.5,3.7,5.5,3.7c3.2,5.5,8.4,3.9,10.4,3
			c0.3-2.3,1.3-3.9,2.3-4.8c-8-0.9-16.3-4-16.3-17.7c0-3.9,1.4-7.1,3.7-9.6c-0.4-0.9-1.6-4.5,0.3-9.5c0,0,3-1,9.9,3.7
			c2.9-0.8,5.9-1.2,9-1.2c3,0,6.1,0.4,9,1.2c6.8-4.6,9.8-3.7,9.8-3.7c2,4.9,0.7,8.6,0.4,9.5c2.3,2.5,3.7,5.7,3.7,9.6
			c0,13.8-8.4,16.8-16.4,17.7c1.3,1.1,2.4,3.3,2.4,6.6c0,4.8,0,8.7,0,9.8c0,1,0.6,2.1,2.5,1.7c14.2-4.7,24.5-18.2,24.5-34
			C99.8,45.1,83.8,29,64,29z"/>
		<path class="st1" d="M41.7,80.5c-0.1,0.2-0.4,0.2-0.6,0.1c-0.3-0.1-0.4-0.4-0.3-0.5c0.1-0.2,0.4-0.2,0.6-0.1
			C41.7,80.1,41.8,80.3,41.7,80.5L41.7,80.5z"/>
		<path class="st1" d="M43.2,82.1c-0.2,0.2-0.5,0.1-0.7-0.2c-0.2-0.2-0.3-0.6-0.1-0.7c0.2-0.2,0.5-0.1,0.7,0.2
			C43.3,81.6,43.4,82,43.2,82.1L43.2,82.1z"/>
		<path class="st1" d="M44.6,84.2c-0.2,0.2-0.6,0-0.8-0.3s-0.2-0.7,0-0.9c0.2-0.2,0.6,0,0.8,0.3S44.8,84,44.6,84.2L44.6,84.2z"/>
		<path class="st1" d="M46.5,86.2c-0.2,0.2-0.6,0.2-0.9-0.1c-0.3-0.3-0.4-0.7-0.2-0.9c0.2-0.2,0.6-0.2,0.9,0.1
			C46.7,85.6,46.7,86,46.5,86.2L46.5,86.2z"/>
		<path class="st1" d="M49.2,87.3c-0.1,0.3-0.5,0.4-0.9,0.3s-0.7-0.5-0.6-0.7c0.1-0.3,0.5-0.4,0.9-0.3C49,86.7,49.3,87.1,49.2,87.3
			L49.2,87.3z"/>
		<path class="st1" d="M52.1,87.6c0,0.3-0.3,0.5-0.8,0.5c-0.4,0-0.8-0.2-0.8-0.5s0.3-0.5,0.8-0.5C51.8,87,52.1,87.3,52.1,87.6
			L52.1,87.6z"/>
		<path class="st1" d="M54.9,87.1c0.1,0.3-0.2,0.6-0.7,0.7c-0.4,0.1-0.8-0.1-0.9-0.4c-0.1-0.3,0.2-0.6,0.7-0.7
			C54.4,86.6,54.8,86.8,54.9,87.1L54.9,87.1z"/>
	</g>
</g>
</svg>
