<?xml version="1.0" encoding="utf-8"?>
<!-- Generator: Adobe Illustrator 21.1.0, SVG Export Plug-In . SVG Version: 6.00 Build 0)  -->
<svg version="1.1" id="Layer_1" xmlns="http://www.w3.org/2000/svg" xmlns:xlink="http://www.w3.org/1999/xlink" x="0px" y="0px"
	 viewBox="0 0 128 128" style="enable-background:new 0 0 128 128;" xml:space="preserve">
<style type="text/css">
	.st0{fill:#FDE031;}
	.st1{fill:#FFFFFF;}
</style>
<title>Resumee</title>
<circle class="st0" cx="64" cy="64" r="64"/>
<path class="st1" d="M87.6,103.1H40.4c-3.8,0-7-3.1-7-6.9v-0.1V31.9c0-3.8,3.1-7,6.9-7h0.1h47.3c3.8,0,7,3.1,7,6.9v0.1V96
	C94.6,99.9,91.5,103,87.6,103.1z M40.4,30.9c-0.5,0-1,0.5-1,1V96c0,0.5,0.5,1,1,1h47.3c0.5,0,1-0.5,1-1V31.9c0-0.5-0.5-1-1-1H40.4z"
	/>
<rect x="48.1" y="43.2" class="st1" width="31.8" height="4"/>
<rect x="48.1" y="56.3" class="st1" width="31.8" height="4"/>
<rect x="48.1" y="69.4" class="st1" width="31.8" height="4"/>
</svg>
